<svg xmlns="http://www.w3.org/2000/svg" width="512" height="512" viewBox="0 0 512 512">
<defs><radialGradient id="sky"><stop stop-color="#31585c"/><stop offset="1" stop-color="#101d27"/></radialGradient></defs>
<path fill="#101d27" d="M0 0h512v512H0z"/>
<circle cx="256" cy="256" r="225" fill="url(#sky)" stroke="#b96f45" stroke-width="12"/>
<path d="M68 320Q247 412 446 182M79 338Q260 430 453 214" fill="none" stroke="#c4874b" stroke-width="4" opacity=".65"/>
<g fill="#f3e8c8"><path d="m113 128 3 8 8 3-8 3-3 8-3-8-8-3 8-3Zm275 207 3 8 8 3-8 3-3 8-3-8-8-3 8-3Z"/><circle cx="370" cy="113" r="3"/><circle cx="113" cy="380" r="3"/><circle cx="429" cy="284" r="3"/></g>
<g stroke="#0a1720" stroke-width="9" stroke-linejoin="round">
<path d="m220 319 12 78 24-24 24 24 12-78" fill="#e9974c"/>
<path d="m240 323 16 48 16-48" fill="#f7db8b" stroke-width="4"/>
<path d="m227 207-71 46-24 90 96-33Zm58 0 71 46 24 90-96-33Z" fill="#b96f45"/>
<path d="m256 112-43 97 8 129 35-17 35 17 8-129Z" fill="#f3e8c8"/>
<path d="m256 152-23 66 23 22 23-22Z" fill="#65aba8" stroke-width="6"/>
<path d="m159 288 48-31m98 0 48 31M256 252v53" fill="none" stroke-width="6"/>
<path d="m209 308 12 30 35-17 35 17 12-30" fill="none" stroke="#d19a60" stroke-width="6"/>
</g>
</svg>
